# xmcd CD database file
#
# Track frame offsets:
#	150
#	24677
#	47839
#	62678
#	81709
#	93604
#
# Disc length: 1499 seconds
#
# Revision: 0
# Processed by: cddbd v1.5.2PL0 Copyright (c) Steve Scherf et al.
# Submitted via: CDex 1.51
#
DISCID=5105d906
DTITLE=Spa Style - Invigorate
DYEAR=2005
DGENRE=New Age
TTITLE0=Heart Strings
TTITLE1=Lucid Moments
TTITLE2=Sanctuary
TTITLE3=Inspiration
TTITLE4=Tranquility
TTITLE5=Zen Garden
EXTD=YEAR: 2005
EXTT0=
EXTT1=
EXTT2=
EXTT3=
EXTT4=
EXTT5=
PLAYORDER=
